<svg version="1.1" height="17" xmlns="http://www.w3.org/2000/svg" xmlns:xlink="http://www.w3.org/1999/xlink" x="0px" y="0px"
	 viewBox="0 0 116 14.1" style="enable-background:new 0 0 116 14.1;" xml:space="preserve">
<style type="text/css">
	.st0{fill:#FFFFFF;}
	.st1{fill:#252C61;}
	.st2{enable-background:new    ;}
	.st3{fill:#fa0f00;}
</style>
<g>
	<g>
		<path class="st1" d="M4.8,9.2c0,0.6-0.2,1.1-0.7,1.5S3,11.2,2.2,11.2s-1.4-0.1-2-0.4V9.7c0.3,0.2,0.7,0.3,1,0.4
			c0.4,0.1,0.7,0.1,1,0.1c0.5,0,0.8-0.1,1-0.3s0.3-0.4,0.3-0.7S3.4,8.7,3.2,8.5c0-0.1-0.4-0.3-1-0.6C1.5,7.7,1.1,7.4,0.8,7
			C0.6,6.7,0.4,6.3,0.4,5.8c0-0.6,0.2-1,0.6-1.4c0.4-0.3,1-0.5,1.7-0.5S4,4,4.7,4.3l-0.3,1C3.7,5.1,3.2,4.9,2.7,4.9
			C2.3,4.9,2,5,1.9,5.2C1.7,5.3,1.6,5.6,1.6,5.8c0,0.2,0,0.3,0.1,0.5c0.1,0.1,0.2,0.3,0.4,0.4s0.5,0.3,1,0.5S4,7.6,4.2,7.8
			C4.4,8,4.6,8.2,4.7,8.4C4.8,8.6,4.8,8.8,4.8,9.2L4.8,9.2z M8.4,11.2c-0.8,0-1.5-0.2-1.9-0.7C6,10,5.8,9.3,5.8,8.5
			c0-0.9,0.2-1.6,0.6-2c0.4-0.5,1-0.7,1.8-0.7c0.7,0,1.3,0.2,1.7,0.6s0.6,1,0.6,1.8v0.6H6.9c0,0.5,0.2,0.9,0.4,1.2
			c0.3,0.3,0.6,0.4,1.1,0.4c0.3,0,0.6,0,0.9-0.1c0.3-0.1,0.6-0.2,0.9-0.3v0.9c-0.3,0.1-0.5,0.2-0.8,0.3C9,11.1,8.7,11.2,8.4,11.2
			L8.4,11.2z M15.1,11.1l-0.2-0.7l0,0c-0.3,0.3-0.5,0.5-0.8,0.7c-0.3,0.1-0.6,0.2-1,0.2c-0.5,0-0.9-0.1-1.2-0.4
			c-0.3-0.3-0.4-0.7-0.4-1.2s0.2-1,0.6-1.2s1-0.4,1.9-0.5h0.9V7.5c0-0.3-0.1-0.6-0.2-0.8c-0.2-0.2-0.4-0.3-0.7-0.3s-0.5,0-0.8,0.1
			c-0.2,0.1-0.5,0.2-0.7,0.3L12.1,6c0.3-0.2,0.6-0.3,0.9-0.3c0.3-0.1,0.6-0.1,1-0.1c0.7,0,1.2,0.1,1.5,0.4S16,6.8,16,7.4V11h-0.9
			V11.1z M20.2,5.7c0.2,0,0.4,0,0.6,0l-0.1,1.1c-0.2,0-0.3-0.1-0.5-0.1c-0.5,0-0.8,0.1-1.1,0.4c-0.3,0.3-0.4,0.7-0.4,1.1V11h-1.1
			V5.8h0.9l0.1,0.9h0.1c0.2-0.3,0.4-0.6,0.7-0.8C19.5,5.8,19.8,5.7,20.2,5.7L20.2,5.7L20.2,5.7z M23.8,11.2c-0.8,0-1.4-0.2-1.8-0.7
			s-0.6-1.1-0.6-2s0.2-1.6,0.7-2.1s1.1-0.7,1.9-0.7c0.6,0,1.1,0.1,1.5,0.3l-0.3,0.9c-0.5-0.2-0.9-0.3-1.2-0.3
			c-0.9,0-1.4,0.6-1.4,1.8c0,0.6,0.1,1,0.3,1.3c0.2,0.3,0.6,0.4,1,0.4c0.5,0,1-0.1,1.4-0.4v1c-0.2,0.1-0.4,0.2-0.6,0.3
			C24.4,11.1,24.1,11.2,23.8,11.2L23.8,11.2z M31.3,11.1h-1.1V7.8c0-0.4-0.1-0.7-0.2-0.9c-0.2-0.2-0.4-0.3-0.8-0.3
			c-0.5,0-0.8,0.1-1,0.4s-0.3,0.8-0.3,1.4V11h-1.1V3.6h1.1v1.9c0,0.3,0,0.6-0.1,1h0.1c0.2-0.3,0.4-0.5,0.6-0.6
			c0.3-0.1,0.6-0.2,1-0.2c1.3,0,1.9,0.6,1.9,1.9L31.3,11.1L31.3,11.1L31.3,11.1z M38.1,5.7c0.7,0,1.2,0.2,1.5,0.7
			c0.4,0.5,0.6,1.2,0.6,2c0,0.9-0.2,1.5-0.6,2c-0.4,0.5-0.9,0.7-1.6,0.7c-0.7,0-1.2-0.2-1.6-0.7h-0.1L36.1,11h-0.8V3.6h1.1v1.8V6
			v0.5l0,0C36.9,5.9,37.4,5.7,38.1,5.7L38.1,5.7z M40.7,5.8h1.2l1.1,3c0.2,0.4,0.3,0.8,0.3,1.2l0,0c0-0.2,0.1-0.4,0.2-0.6
			C43.6,9.1,44,8,44.7,5.8H46l-2.3,6c-0.4,1.1-1.1,1.7-2.1,1.7c-0.2,0-0.5,0-0.7-0.1v-0.9c0.2,0,0.4,0.1,0.6,0.1
			c0.5,0,0.9-0.3,1.1-0.9l0.2-0.5L40.7,5.8L40.7,5.8L40.7,5.8z M37.8,6.6c-0.5,0-0.8,0.1-1,0.4s-0.3,0.7-0.3,1.3v0.1
			c0,0.6,0.1,1.1,0.3,1.4s0.5,0.4,1,0.4c0.4,0,0.7-0.2,0.9-0.5C38.9,9.5,39,9,39,8.4C39,7.2,38.6,6.6,37.8,6.6L37.8,6.6z M13.4,10.3
			c0.4,0,0.7-0.1,1-0.3c0.2-0.2,0.4-0.6,0.4-1V8.5h-0.7c-0.5,0-0.9,0.1-1.2,0.3c-0.2,0.2-0.4,0.4-0.4,0.7c0,0.2,0.1,0.4,0.2,0.6
			C12.9,10.2,13.1,10.3,13.4,10.3L13.4,10.3z M8.2,6.5c-0.4,0-0.6,0.1-0.9,0.3S7,7.4,6.9,7.9h2.4c0-0.4-0.1-0.8-0.3-1
			C8.8,6.6,8.6,6.5,8.2,6.5L8.2,6.5z"/>
	</g>
</g>
<g class="st2">
	<path class="st3" d="M50.1,5.9c0,0.1,0,0.3,0.1,0.4c0.1,0.1,0.2,0.1,0.4,0.1h2.5c0.6,0,1.1,0.2,1.5,0.6c0.4,0.4,0.6,0.9,0.6,1.5
		v0.6c0,0.6-0.2,1.1-0.6,1.5c-0.4,0.4-0.9,0.6-1.5,0.6c-0.6,0-1.2,0-1.8,0c-0.6,0-1.2,0-1.7-0.1c-0.6,0-1.2,0-1.8-0.1V9.1
		c0.5,0.1,1,0.1,1.5,0.2c0.4,0,0.9,0,1.5,0c0.5,0,1,0,1.5,0c0.1,0,0.3,0,0.4-0.1s0.1-0.2,0.1-0.3V8.3h-3c-0.6,0-1.1-0.2-1.5-0.6
		s-0.6-0.9-0.6-1.5V5.7c0-0.6,0.2-1.1,0.6-1.5s0.9-0.6,1.5-0.6h4.8v1.8h-3.9c-0.1,0-0.3,0-0.4,0.1C50.1,5.7,50.1,5.8,50.1,5.9z"/>
	<path class="st3" d="M63.7,8.1L65,3.6h2.7l-2.3,7.4h-2.6l-1.4-4.5l-1.4,4.5h-2.6L55,3.6h2.7L59,8.1l1.3-4.5h2.2L63.7,8.1z"/>
	<path class="st3" d="M71.3,3.9v7.1h-2.5V5.8h-1V3.9H71.3z M68.8,1.1h2.5v2h-2.5V1.1z"/>
	<path class="st3" d="M76.2,3c-0.1,0-0.3,0-0.4,0.1c-0.1,0.1-0.1,0.2-0.1,0.3v0.7H78v1.9h-2.3v5h-2.5v-5h-1V4.2h1v-1
		c0-0.6,0.2-1.1,0.6-1.5s0.9-0.6,1.5-0.6c0.3,0,0.7,0,1.1,0c0.4,0,0.8,0,1.1,0c0.4,0,0.8,0,1.2,0v2c-0.3,0-0.6,0-0.8-0.1
		c-0.2,0-0.5,0-0.8,0S76.5,3,76.2,3z"/>
	<path class="st3" d="M81.9,3.6h1.8v1.9h-1.8v3.2c0,0.1,0,0.3,0.1,0.4c0.1,0.1,0.2,0.1,0.3,0.1h1.8v1.8c-0.3,0-0.6,0.1-0.9,0.1
		c-0.3,0-0.5,0.1-0.9,0.1s-0.6,0-1,0c-0.6,0-1.1-0.2-1.5-0.6c-0.4-0.4-0.6-0.9-0.6-1.5V5.5h-0.8V3.6h0.8L79.7,2h2.2V3.6z"/>
	<path class="st3" d="M89.8,3.6h2.6l-2.8,7.7c-0.3,0.7-0.6,1.3-1,1.7c-0.4,0.4-1,0.6-1.8,0.6c-0.2,0-0.4,0-0.6,0s-0.4,0-0.6,0
		c-0.2,0-0.4-0.1-0.6-0.1v-1.8h1.3c0.4,0,0.6-0.1,0.7-0.3c0.1-0.2,0.1-0.5-0.1-0.8L84,3.6h2.6l1.8,4.8L89.8,3.6z"/>
	<path class="st3" d="M95.3,11.1v2.4h-2.5V3.6H95l0.1,0.7c0.2-0.2,0.5-0.3,0.8-0.4c0.2-0.1,0.5-0.2,0.8-0.3s0.6-0.1,0.9-0.1h0.6
		c0.6,0,1.1,0.2,1.5,0.6c0.4,0.4,0.6,0.9,0.6,1.5v3.2c0,0.7-0.2,1.2-0.6,1.6s-0.9,0.6-1.6,0.6H95.3z M95.3,9.2h2.1
		C97.8,9.2,98,9,98,8.6V6c0-0.1,0-0.3-0.1-0.3c-0.1-0.1-0.2-0.1-0.3-0.1H97c-0.2,0-0.4,0-0.6,0c-0.2,0-0.4,0.1-0.5,0.1
		c-0.2,0-0.4,0.1-0.6,0.1V9.2z"/>
	<path class="st3" d="M101.5,5.7c0-0.7,0.2-1.2,0.6-1.6c0.4-0.4,0.9-0.6,1.6-0.6h2.8c0.7,0,1.2,0.2,1.6,0.6c0.4,0.4,0.6,0.9,0.6,1.6
		v2.6H104v0.5c0,0.1,0,0.2,0.1,0.3c0.1,0.1,0.2,0.1,0.4,0.1c0.4,0,0.8,0,1.3,0s0.9,0,1.3,0c0.5-0.1,1-0.1,1.4-0.2v1.8
		c-0.5,0.1-1.1,0.1-1.7,0.1c-0.5,0.1-1,0.1-1.6,0.1s-1.1,0-1.7,0c-0.6,0-1.1-0.2-1.5-0.6s-0.6-0.9-0.6-1.5V5.7z M104.5,5.2
		c-0.4,0-0.6,0.2-0.6,0.6v0.8h2.4V5.8c0-0.4-0.2-0.6-0.6-0.6H104.5z"/>
	<path class="st3" d="M112.2,3.6l0.1,0.9c0.2-0.2,0.5-0.4,0.7-0.5c0.2-0.1,0.5-0.3,0.8-0.4c0.3-0.1,0.6-0.2,1-0.2h0.6v2.2h-1.2
		c-0.2,0-0.5,0-0.7,0.1c-0.2,0-0.4,0.1-0.6,0.1c-0.2,0.1-0.4,0.1-0.5,0.2v5h-2.5V3.6H112.2z"/>
</g>
</svg>
